<mxfile host="app.diagrams.net" modified="2022-10-20T12:27:52.004Z" agent="5.0 (Windows NT 10.0; Win64; x64) AppleWebKit/537.36 (KHTML, like Gecko) Chrome/106.0.0.0 Safari/537.36" etag="OSB9hDk8kMjzvos5QYvl" version="20.4.2" type="github">
  <diagram id="tmy6j7FnJz-yVx0Myi0w" name="Страница 1">
    <mxGraphModel dx="650" dy="402" grid="1" gridSize="10" guides="1" tooltips="1" connect="1" arrows="1" fold="1" page="1" pageScale="1" pageWidth="2339" pageHeight="3300" math="0" shadow="0">
      <root>
        <mxCell id="0" />
        <mxCell id="1" parent="0" />
        <mxCell id="WfI1W_grpqUffeqVLtax-5" value="" style="shape=umlLifeline;participant=umlActor;perimeter=lifelinePerimeter;whiteSpace=wrap;html=1;container=1;collapsible=0;recursiveResize=0;verticalAlign=top;spacingTop=36;outlineConnect=0;" vertex="1" parent="1">
          <mxGeometry x="240" y="335" width="21.33" height="320" as="geometry" />
        </mxCell>
        <mxCell id="WfI1W_grpqUffeqVLtax-8" value="Get list of groups" style="html=1;verticalAlign=bottom;endArrow=block;rounded=0;" edge="1" parent="WfI1W_grpqUffeqVLtax-5" target="WfI1W_grpqUffeqVLtax-6">
          <mxGeometry width="80" relative="1" as="geometry">
            <mxPoint x="10" y="75" as="sourcePoint" />
            <mxPoint x="90" y="75" as="targetPoint" />
          </mxGeometry>
        </mxCell>
        <mxCell id="WfI1W_grpqUffeqVLtax-21" value="" style="html=1;points=[];perimeter=orthogonalPerimeter;" vertex="1" parent="WfI1W_grpqUffeqVLtax-5">
          <mxGeometry x="5" y="55" width="10" height="265" as="geometry" />
        </mxCell>
        <mxCell id="WfI1W_grpqUffeqVLtax-6" value="CourseService" style="shape=umlLifeline;perimeter=lifelinePerimeter;whiteSpace=wrap;html=1;container=1;collapsible=0;recursiveResize=0;outlineConnect=0;" vertex="1" parent="1">
          <mxGeometry x="420" y="335" width="100" height="300" as="geometry" />
        </mxCell>
        <mxCell id="WfI1W_grpqUffeqVLtax-12" value="Get list of tutors" style="html=1;verticalAlign=bottom;endArrow=block;rounded=0;" edge="1" parent="WfI1W_grpqUffeqVLtax-6">
          <mxGeometry width="80" relative="1" as="geometry">
            <mxPoint x="-170" y="164.9999999999999" as="sourcePoint" />
            <mxPoint x="49.5" y="164.9999999999999" as="targetPoint" />
          </mxGeometry>
        </mxCell>
        <mxCell id="WfI1W_grpqUffeqVLtax-18" value="" style="html=1;verticalAlign=bottom;endArrow=open;dashed=1;endSize=8;rounded=0;" edge="1" parent="WfI1W_grpqUffeqVLtax-6" source="WfI1W_grpqUffeqVLtax-10">
          <mxGeometry relative="1" as="geometry">
            <mxPoint x="49.01999999999998" y="214.9999999999999" as="sourcePoint" />
            <mxPoint x="-170.00465517241386" y="214.9999999999999" as="targetPoint" />
            <Array as="points">
              <mxPoint x="-60.48000000000002" y="215" />
            </Array>
          </mxGeometry>
        </mxCell>
        <mxCell id="WfI1W_grpqUffeqVLtax-17" value="" style="html=1;verticalAlign=bottom;endArrow=open;dashed=1;endSize=8;rounded=0;" edge="1" parent="WfI1W_grpqUffeqVLtax-6">
          <mxGeometry relative="1" as="geometry">
            <mxPoint x="50" y="185" as="sourcePoint" />
            <mxPoint x="-170.00465517241386" y="184.9999999999999" as="targetPoint" />
            <Array as="points">
              <mxPoint x="-60.48000000000002" y="185" />
            </Array>
          </mxGeometry>
        </mxCell>
        <mxCell id="WfI1W_grpqUffeqVLtax-11" value="Get list of courses" style="html=1;verticalAlign=bottom;endArrow=block;rounded=0;" edge="1" parent="WfI1W_grpqUffeqVLtax-6">
          <mxGeometry width="80" relative="1" as="geometry">
            <mxPoint x="-170" y="124.99999999999989" as="sourcePoint" />
            <mxPoint x="49.5" y="124.99999999999989" as="targetPoint" />
          </mxGeometry>
        </mxCell>
        <mxCell id="WfI1W_grpqUffeqVLtax-22" value="" style="html=1;points=[];perimeter=orthogonalPerimeter;" vertex="1" parent="WfI1W_grpqUffeqVLtax-6">
          <mxGeometry x="45" y="65" width="10" height="45" as="geometry" />
        </mxCell>
        <mxCell id="WfI1W_grpqUffeqVLtax-23" value="" style="html=1;points=[];perimeter=orthogonalPerimeter;" vertex="1" parent="WfI1W_grpqUffeqVLtax-6">
          <mxGeometry x="45" y="115" width="10" height="35" as="geometry" />
        </mxCell>
        <mxCell id="WfI1W_grpqUffeqVLtax-24" value="" style="html=1;points=[];perimeter=orthogonalPerimeter;" vertex="1" parent="WfI1W_grpqUffeqVLtax-6">
          <mxGeometry x="45" y="160" width="10" height="30" as="geometry" />
        </mxCell>
        <mxCell id="WfI1W_grpqUffeqVLtax-15" value="Get list of classroms" style="html=1;verticalAlign=bottom;endArrow=block;rounded=0;" edge="1" parent="WfI1W_grpqUffeqVLtax-6">
          <mxGeometry width="80" relative="1" as="geometry">
            <mxPoint x="-170" y="274.9999999999999" as="sourcePoint" />
            <mxPoint x="229.5" y="274.9999999999999" as="targetPoint" />
          </mxGeometry>
        </mxCell>
        <mxCell id="WfI1W_grpqUffeqVLtax-7" value="Administrator" style="text;html=1;strokeColor=none;fillColor=none;align=center;verticalAlign=middle;whiteSpace=wrap;rounded=0;" vertex="1" parent="1">
          <mxGeometry x="170" y="340" width="60" height="30" as="geometry" />
        </mxCell>
        <mxCell id="WfI1W_grpqUffeqVLtax-9" value="" style="html=1;verticalAlign=bottom;endArrow=open;dashed=1;endSize=8;rounded=0;" edge="1" parent="1" source="WfI1W_grpqUffeqVLtax-6" target="WfI1W_grpqUffeqVLtax-5">
          <mxGeometry relative="1" as="geometry">
            <mxPoint x="370" y="440" as="sourcePoint" />
            <mxPoint x="290" y="440" as="targetPoint" />
            <Array as="points">
              <mxPoint x="360" y="440" />
            </Array>
          </mxGeometry>
        </mxCell>
        <mxCell id="WfI1W_grpqUffeqVLtax-10" value="ScheduleService" style="shape=umlLifeline;perimeter=lifelinePerimeter;whiteSpace=wrap;html=1;container=1;collapsible=0;recursiveResize=0;outlineConnect=0;" vertex="1" parent="1">
          <mxGeometry x="600" y="335" width="100" height="300" as="geometry" />
        </mxCell>
        <mxCell id="WfI1W_grpqUffeqVLtax-25" value="" style="html=1;points=[];perimeter=orthogonalPerimeter;" vertex="1" parent="WfI1W_grpqUffeqVLtax-10">
          <mxGeometry x="45" y="190" width="10" height="30" as="geometry" />
        </mxCell>
        <mxCell id="WfI1W_grpqUffeqVLtax-27" value="" style="html=1;points=[];perimeter=orthogonalPerimeter;" vertex="1" parent="WfI1W_grpqUffeqVLtax-10">
          <mxGeometry x="45" y="230" width="10" height="25" as="geometry" />
        </mxCell>
        <mxCell id="WfI1W_grpqUffeqVLtax-28" value="" style="html=1;points=[];perimeter=orthogonalPerimeter;" vertex="1" parent="WfI1W_grpqUffeqVLtax-10">
          <mxGeometry x="45" y="265" width="10" height="25" as="geometry" />
        </mxCell>
        <mxCell id="WfI1W_grpqUffeqVLtax-13" value="Get list of available times" style="html=1;verticalAlign=bottom;endArrow=block;rounded=0;" edge="1" parent="1" target="WfI1W_grpqUffeqVLtax-10">
          <mxGeometry width="80" relative="1" as="geometry">
            <mxPoint x="250" y="539.9999999999999" as="sourcePoint" />
            <mxPoint x="469.5" y="539.9999999999999" as="targetPoint" />
          </mxGeometry>
        </mxCell>
        <mxCell id="WfI1W_grpqUffeqVLtax-14" value="Get list of types of lessons" style="html=1;verticalAlign=bottom;endArrow=block;rounded=0;" edge="1" parent="1">
          <mxGeometry width="80" relative="1" as="geometry">
            <mxPoint x="250" y="569.9999999999999" as="sourcePoint" />
            <mxPoint x="649.5" y="569.9999999999999" as="targetPoint" />
          </mxGeometry>
        </mxCell>
        <mxCell id="WfI1W_grpqUffeqVLtax-16" value="" style="html=1;verticalAlign=bottom;endArrow=open;dashed=1;endSize=8;rounded=0;" edge="1" parent="1" target="WfI1W_grpqUffeqVLtax-5">
          <mxGeometry relative="1" as="geometry">
            <mxPoint x="470" y="480" as="sourcePoint" />
            <mxPoint x="249.99534482758614" y="484.65999999999985" as="targetPoint" />
            <Array as="points">
              <mxPoint x="440" y="480" />
              <mxPoint x="300" y="480" />
            </Array>
          </mxGeometry>
        </mxCell>
        <mxCell id="WfI1W_grpqUffeqVLtax-19" value="" style="html=1;verticalAlign=bottom;endArrow=open;dashed=1;endSize=8;rounded=0;" edge="1" parent="1" source="WfI1W_grpqUffeqVLtax-10">
          <mxGeometry relative="1" as="geometry">
            <mxPoint x="469.02" y="579.9999999999999" as="sourcePoint" />
            <mxPoint x="249.99534482758614" y="579.9999999999999" as="targetPoint" />
            <Array as="points">
              <mxPoint x="470" y="580" />
              <mxPoint x="359.52" y="580" />
            </Array>
          </mxGeometry>
        </mxCell>
        <mxCell id="WfI1W_grpqUffeqVLtax-20" value="" style="html=1;verticalAlign=bottom;endArrow=open;dashed=1;endSize=8;rounded=0;" edge="1" parent="1" source="WfI1W_grpqUffeqVLtax-10">
          <mxGeometry relative="1" as="geometry">
            <mxPoint x="469.02" y="619.9999999999999" as="sourcePoint" />
            <mxPoint x="249.99534482758614" y="619.9999999999999" as="targetPoint" />
            <Array as="points">
              <mxPoint x="450" y="620" />
              <mxPoint x="359.52" y="620" />
            </Array>
          </mxGeometry>
        </mxCell>
        <mxCell id="WfI1W_grpqUffeqVLtax-29" value="" style="shape=umlLifeline;participant=umlActor;perimeter=lifelinePerimeter;whiteSpace=wrap;html=1;container=1;collapsible=0;recursiveResize=0;verticalAlign=top;spacingTop=36;outlineConnect=0;" vertex="1" parent="1">
          <mxGeometry x="270" y="750" width="21.33" height="320" as="geometry" />
        </mxCell>
        <mxCell id="WfI1W_grpqUffeqVLtax-30" value="Get list of conversation" style="html=1;verticalAlign=bottom;endArrow=block;rounded=0;" edge="1" parent="WfI1W_grpqUffeqVLtax-29" target="WfI1W_grpqUffeqVLtax-32">
          <mxGeometry width="80" relative="1" as="geometry">
            <mxPoint x="10" y="75" as="sourcePoint" />
            <mxPoint x="90" y="75" as="targetPoint" />
          </mxGeometry>
        </mxCell>
        <mxCell id="WfI1W_grpqUffeqVLtax-31" value="" style="html=1;points=[];perimeter=orthogonalPerimeter;" vertex="1" parent="WfI1W_grpqUffeqVLtax-29">
          <mxGeometry x="5" y="55" width="10" height="265" as="geometry" />
        </mxCell>
        <mxCell id="WfI1W_grpqUffeqVLtax-32" value="MessengerService" style="shape=umlLifeline;perimeter=lifelinePerimeter;whiteSpace=wrap;html=1;container=1;collapsible=0;recursiveResize=0;outlineConnect=0;" vertex="1" parent="1">
          <mxGeometry x="450" y="750" width="100" height="300" as="geometry" />
        </mxCell>
        <mxCell id="WfI1W_grpqUffeqVLtax-63" value="" style="html=1;points=[];perimeter=orthogonalPerimeter;" vertex="1" parent="WfI1W_grpqUffeqVLtax-32">
          <mxGeometry x="45" y="60" width="15" height="60" as="geometry" />
        </mxCell>
        <mxCell id="WfI1W_grpqUffeqVLtax-67" value="" style="html=1;points=[];perimeter=orthogonalPerimeter;" vertex="1" parent="WfI1W_grpqUffeqVLtax-32">
          <mxGeometry x="45" y="130" width="15" height="40" as="geometry" />
        </mxCell>
        <mxCell id="WfI1W_grpqUffeqVLtax-70" value="" style="html=1;points=[];perimeter=orthogonalPerimeter;" vertex="1" parent="WfI1W_grpqUffeqVLtax-32">
          <mxGeometry x="45" y="180" width="15" height="50" as="geometry" />
        </mxCell>
        <mxCell id="WfI1W_grpqUffeqVLtax-41" value="user" style="text;html=1;strokeColor=none;fillColor=none;align=center;verticalAlign=middle;whiteSpace=wrap;rounded=0;" vertex="1" parent="1">
          <mxGeometry x="210" y="770" width="60" height="30" as="geometry" />
        </mxCell>
        <mxCell id="WfI1W_grpqUffeqVLtax-51" value="CourseService" style="shape=umlLifeline;perimeter=lifelinePerimeter;whiteSpace=wrap;html=1;container=1;collapsible=0;recursiveResize=0;outlineConnect=0;" vertex="1" parent="1">
          <mxGeometry x="650" y="750" width="100" height="300" as="geometry" />
        </mxCell>
        <mxCell id="WfI1W_grpqUffeqVLtax-56" value="Get indormation of users" style="html=1;verticalAlign=bottom;endArrow=block;rounded=0;startArrow=none;" edge="1" parent="WfI1W_grpqUffeqVLtax-51" source="WfI1W_grpqUffeqVLtax-68">
          <mxGeometry x="0.4153" y="5" width="80" relative="1" as="geometry">
            <mxPoint x="-150" y="85" as="sourcePoint" />
            <mxPoint x="50" y="85" as="targetPoint" />
            <Array as="points">
              <mxPoint x="-140" y="85" />
            </Array>
            <mxPoint as="offset" />
          </mxGeometry>
        </mxCell>
        <mxCell id="WfI1W_grpqUffeqVLtax-68" value="" style="html=1;points=[];perimeter=orthogonalPerimeter;" vertex="1" parent="WfI1W_grpqUffeqVLtax-51">
          <mxGeometry x="46.25" y="60" width="7.5" height="60" as="geometry" />
        </mxCell>
        <mxCell id="WfI1W_grpqUffeqVLtax-57" value="" style="html=1;verticalAlign=bottom;endArrow=open;dashed=1;endSize=8;rounded=0;" edge="1" parent="1" target="WfI1W_grpqUffeqVLtax-32">
          <mxGeometry relative="1" as="geometry">
            <mxPoint x="700" y="850" as="sourcePoint" />
            <mxPoint x="620" y="850" as="targetPoint" />
          </mxGeometry>
        </mxCell>
        <mxCell id="WfI1W_grpqUffeqVLtax-58" value="" style="html=1;verticalAlign=bottom;endArrow=open;dashed=1;endSize=8;rounded=0;" edge="1" parent="1" target="WfI1W_grpqUffeqVLtax-29">
          <mxGeometry relative="1" as="geometry">
            <mxPoint x="500.19" y="860" as="sourcePoint" />
            <mxPoint x="300.0003448275863" y="860" as="targetPoint" />
          </mxGeometry>
        </mxCell>
        <mxCell id="WfI1W_grpqUffeqVLtax-59" value="Write message" style="html=1;verticalAlign=bottom;endArrow=block;rounded=0;" edge="1" parent="1">
          <mxGeometry width="80" relative="1" as="geometry">
            <mxPoint x="280" y="890" as="sourcePoint" />
            <mxPoint x="499.5" y="890" as="targetPoint" />
          </mxGeometry>
        </mxCell>
        <mxCell id="WfI1W_grpqUffeqVLtax-60" value="" style="html=1;verticalAlign=bottom;endArrow=open;dashed=1;endSize=8;rounded=0;" edge="1" parent="1" source="WfI1W_grpqUffeqVLtax-32" target="WfI1W_grpqUffeqVLtax-29">
          <mxGeometry relative="1" as="geometry">
            <mxPoint x="440" y="910" as="sourcePoint" />
            <mxPoint x="360" y="910" as="targetPoint" />
            <Array as="points">
              <mxPoint x="400" y="910" />
            </Array>
          </mxGeometry>
        </mxCell>
        <mxCell id="WfI1W_grpqUffeqVLtax-61" value="Send message" style="html=1;verticalAlign=bottom;endArrow=block;rounded=0;" edge="1" parent="1">
          <mxGeometry width="80" relative="1" as="geometry">
            <mxPoint x="280" y="940" as="sourcePoint" />
            <mxPoint x="499.5" y="940" as="targetPoint" />
          </mxGeometry>
        </mxCell>
        <mxCell id="WfI1W_grpqUffeqVLtax-62" value="" style="html=1;verticalAlign=bottom;endArrow=open;dashed=1;endSize=8;rounded=0;" edge="1" parent="1" source="WfI1W_grpqUffeqVLtax-32" target="WfI1W_grpqUffeqVLtax-31">
          <mxGeometry relative="1" as="geometry">
            <mxPoint x="460" y="970" as="sourcePoint" />
            <mxPoint x="380" y="970" as="targetPoint" />
            <Array as="points">
              <mxPoint x="330" y="970" />
            </Array>
          </mxGeometry>
        </mxCell>
        <mxCell id="WfI1W_grpqUffeqVLtax-88" value="" style="shape=umlLifeline;participant=umlActor;perimeter=lifelinePerimeter;whiteSpace=wrap;html=1;container=1;collapsible=0;recursiveResize=0;verticalAlign=top;spacingTop=36;outlineConnect=0;" vertex="1" parent="1">
          <mxGeometry x="300" y="1370" width="21.33" height="320" as="geometry" />
        </mxCell>
        <mxCell id="WfI1W_grpqUffeqVLtax-89" value="Get list of conversation" style="html=1;verticalAlign=bottom;endArrow=block;rounded=0;" edge="1" parent="WfI1W_grpqUffeqVLtax-88" target="WfI1W_grpqUffeqVLtax-91">
          <mxGeometry width="80" relative="1" as="geometry">
            <mxPoint x="10" y="75" as="sourcePoint" />
            <mxPoint x="90" y="75" as="targetPoint" />
          </mxGeometry>
        </mxCell>
        <mxCell id="WfI1W_grpqUffeqVLtax-90" value="" style="html=1;points=[];perimeter=orthogonalPerimeter;" vertex="1" parent="WfI1W_grpqUffeqVLtax-88">
          <mxGeometry x="5" y="55" width="10" height="265" as="geometry" />
        </mxCell>
        <mxCell id="WfI1W_grpqUffeqVLtax-91" value="CourseService" style="shape=umlLifeline;perimeter=lifelinePerimeter;whiteSpace=wrap;html=1;container=1;collapsible=0;recursiveResize=0;outlineConnect=0;" vertex="1" parent="1">
          <mxGeometry x="480" y="1370" width="100" height="300" as="geometry" />
        </mxCell>
        <mxCell id="WfI1W_grpqUffeqVLtax-95" value="Tutor" style="text;html=1;strokeColor=none;fillColor=none;align=center;verticalAlign=middle;whiteSpace=wrap;rounded=0;" vertex="1" parent="1">
          <mxGeometry x="240" y="1390" width="60" height="30" as="geometry" />
        </mxCell>
        <mxCell id="WfI1W_grpqUffeqVLtax-96" value="QuizService" style="shape=umlLifeline;perimeter=lifelinePerimeter;whiteSpace=wrap;html=1;container=1;collapsible=0;recursiveResize=0;outlineConnect=0;" vertex="1" parent="1">
          <mxGeometry x="680" y="1370" width="100" height="300" as="geometry" />
        </mxCell>
      </root>
    </mxGraphModel>
  </diagram>
</mxfile>
